<?xml version="1.0" standalone="no"?>
<!DOCTYPE svg PUBLIC "-//W3C//DTD SVG 20010904//EN"
 "http://www.w3.org/TR/2001/REC-SVG-20010904/DTD/svg10.dtd">
<svg version="1.0" xmlns="http://www.w3.org/2000/svg"
 width="128.000000pt" height="128.000000pt" viewBox="0 0 128.000000 128.000000"
 preserveAspectRatio="xMidYMid meet">

<g transform="translate(0.000000,128.000000) scale(0.100000,-0.100000)"
fill="#000000" stroke="none">
<path d="M0 1251 c0 -26 4 -30 33 -34 l32 -4 -32 -1 -33 -2 0 -605 0 -605 75
0 75 0 0 440 0 440 38 -2 c36 -1 36 -1 5 -5 l-33 -4 2 -437 3 -437 5 360 5
360 3 -357 2 -358 550 0 550 0 0 50 c0 49 0 50 -32 51 l-33 2 35 7 35 7 -35 5
-35 5 33 1 32 2 0 145 c0 138 -1 145 -20 145 -14 0 -20 6 -19 23 1 16 2 18 6
4 6 -24 33 -22 33 3 0 16 -7 20 -32 20 -23 0 -29 3 -19 9 7 5 22 6 32 4 18 -5
19 7 19 396 l0 401 -250 0 c-226 0 -250 -2 -260 -17 -11 -17 -11 -17 -6 0 5
16 -18 17 -379 17 l-385 0 0 -29z m478 -278 c-10 -2 -28 -2 -40 0 -13 2 -5 4
17 4 22 1 32 -1 23 -4z m0 -20 c-10 -2 -28 -2 -40 0 -13 2 -5 4 17 4 22 1 32
-1 23 -4z m-248 -136 c12 -4 11 -6 -2 -6 -11 -1 -18 -9 -18 -22 0 -16 4 -19
21 -14 15 5 19 4 15 -4 -13 -21 -44 -12 -54 17 -9 26 5 60 18 42 3 -4 12 -10
20 -13z m130 -14 c0 -8 6 -13 13 -10 6 2 11 10 10 16 -2 6 4 11 12 11 12 0 11
-6 -5 -32 -10 -17 -17 -35 -14 -40 3 -4 -7 -7 -23 -7 -17 1 -21 3 -10 6 31 8
14 54 -22 60 -26 4 -40 -25 -20 -38 11 -6 8 -9 -9 -9 -18 0 -22 4 -18 24 2 14
-1 27 -7 29 -7 2 12 4 41 4 39 0 52 -3 52 -14z m420 -163 c0 -5 -2 -10 -4 -10
-3 0 -8 5 -11 10 -3 6 -1 10 4 10 6 0 11 -4 11 -10z m98 -7 c-10 -2 -28 -2
-40 0 -13 2 -5 4 17 4 22 1 32 -1 23 -4z m0 -20 c-10 -2 -28 -2 -40 0 -13 2
-5 4 17 4 22 1 32 -1 23 -4z m-98 -13 c0 -5 -2 -10 -4 -10 -3 0 -8 5 -11 10
-3 6 -1 10 4 10 6 0 11 -4 11 -10z m335 -140 c0 -26 -5 -36 -19 -38 -10 -2
-23 1 -30 8 -8 9 -4 10 17 5 25 -7 27 -5 27 25 0 27 -3 32 -20 27 -11 -3 -20
-1 -20 5 0 5 10 8 23 6 18 -2 22 -9 22 -38z m-727 12 c-10 -2 -18 -8 -18 -13
0 -5 -6 -4 -14 3 -17 16 -2 28 28 20 18 -5 18 -7 4 -10z m80 -1 c17 -11 12
-43 -8 -49 -13 -4 -13 -3 -2 11 16 18 8 37 -15 37 -11 0 -14 -7 -11 -25 3 -13
1 -22 -3 -19 -11 6 -12 38 -2 47 9 9 25 8 41 -2z m70 -11 c-20 -17 -21 -21 -8
-30 13 -8 13 -10 -1 -10 -11 0 -18 10 -21 29 -4 25 -1 28 24 29 l29 1 -23 -19z
m420 3 c-10 -2 -28 -2 -40 0 -13 2 -5 4 17 4 22 1 32 -1 23 -4z m0 -20 c-10
-2 -28 -2 -40 0 -13 2 -5 4 17 4 22 1 32 -1 23 -4z m-568 -19 c0 -2 -12 -4
-27 -4 -21 0 -24 3 -14 9 13 8 41 5 41 -5z m635 -143 c0 -27 -3 -44 -7 -38 -9
15 -10 50 -2 71 3 9 7 16 8 16 0 0 1 -22 1 -49z m-485 -191 c0 -5 -2 -10 -4
-10 -3 0 -8 5 -11 10 -3 6 -1 10 4 10 6 0 11 -4 11 -10z"/>
</g>
</svg>
